<svg height="55.026402" viewBox="0 0 278.34399 55.026402" width="278.34399" xmlns="http://www.w3.org/2000/svg" xmlns:xlink="http://www.w3.org/1999/xlink"><clipPath id="a"><path d="m0 0h208.758v41.27h-208.758z"/></clipPath><clipPath id="b"><path d="m0 0h208.758v41.27h-208.758z"/></clipPath><g transform="matrix(1.3333333 0 0 -1.3333333 0 55.0264)"><g clip-path="url(#a)" fill="#00a8c4"><path d="m0 0v29.068l7.793-4.152c.974-.564 1.589-1.436 1.589-2.666v-15.432c0-1.179-.564-2.153-1.589-2.717zm36.092 19.123v-9.28c0-1.692-.718-2.717-2.153-3.537l-22.353-12.407v7.998c0 1.23.513 2.153 1.59 2.717l13.073 7.331c.512.308.769.769.769 1.384v2.359c0 .564-.308 1.076-.769 1.384l-13.125 7.28c-1.025.564-1.589 1.486-1.589 2.717v8.1l22.404-12.509c1.486-.82 2.153-1.846 2.153-3.537" transform="translate(0 6.1009)"/><path d="m0 0c5.588 0 9.023-3.486 9.023-9.177v-10.715c0-5.69-3.384-9.176-9.023-9.176h-10.356v29.068zm3.589-19.686v10.304c0 2.922-1.333 4.409-4.102 4.409h-4.46v-19.122h4.46c2.769 0 4.102 1.435 4.102 4.409" transform="translate(61.0075 35.1692)"/><path d="m0 0v19.994h5.383v-19.994c0-2.922 1.435-4.511 4.204-4.511h.205c2.717 0 4.204 1.64 4.204 4.511v19.994h5.383v-19.994c0-5.896-3.486-9.484-8.921-9.484h-1.538c-5.434-.052-8.92 3.588-8.92 9.484" transform="translate(74.3369 15.1752)"/><path d="m0 0v10.869c0 5.895 3.486 9.484 8.92 9.484h1.538c5.435 0 8.921-3.589 8.921-9.484v-10.869c0-5.896-3.486-9.484-8.921-9.484h-1.538c-5.434-.052-8.92 3.588-8.92 9.484m13.996 0v10.869c0 2.922-1.436 4.511-4.204 4.511h-.205c-2.717 0-4.255-1.64-4.255-4.511v-10.869c0-2.871 1.486-4.511 4.255-4.511h.205c2.717 0 4.204 1.64 4.204 4.511" transform="translate(98.1247 15.1752)"/></g><path d="m0 0v-24.198h-5.383v24.198h-6.921v4.87h19.276v-4.87z" fill="#00a8c4" transform="translate(132.5247 30.2989)"/><g clip-path="url(#b)"><path d="m0 0v10.869c0 5.895 3.486 9.484 8.92 9.484h1.538c5.435 0 8.921-3.589 8.921-9.484v-10.869c0-5.896-3.486-9.484-8.921-9.484h-1.538c-5.434-.052-8.92 3.588-8.92 9.484m13.996 0v10.869c0 2.922-1.436 4.511-4.204 4.511h-.205c-2.717 0-4.255-1.64-4.255-4.511v-10.869c0-2.871 1.486-4.511 4.255-4.511h.205c2.768 0 4.204 1.64 4.204 4.511" fill="#00a8c4" transform="translate(142.1629 15.1752)"/></g><g fill="#00a8c4"><path d="m0 0 8.562-19.994v19.994h5.383v-29.068h-6.819l-8.561 19.994v-19.994h-5.383v29.068z" transform="translate(172.923 35.1692)"/><path d="m0 0v-29.068h16.918v4.972h-11.484v7.486h10.254v4.972h-10.254v6.665h11.074v4.973z" transform="translate(191.8404 35.1693)"/></g></g></svg>
